<svg version="1.2" xmlns="http://www.w3.org/2000/svg" viewBox="0 0 700 360" width="700" height="360">
	<title>shadokos</title>
	<style>
		.s0 { fill: none;stroke: #f7a41d;stroke-miterlimit:100;stroke-width: 33 } 
		.s2 { fill: #777777 }

		@media (prefers-color-scheme: light) {.s1 { fill: #121212; }}
		@media (prefers-color-scheme: dark)  {.s1 { fill: #fff; }}
	</style>
	<g id="wiki logo ">
		<path id="Layer 2" class="s0" d="m340 140c2.4 17.5 20 20 91.3 74.6-80-14.9-129.7-20.8-191.3-48.1-65.5-29.2-151.5-41.3-151.5-41.3 0 0 91.5-33.9 425.3 44.7 18.8 4.4 46.2 17 146.2 44.3-26.2-52.3-76.2-94.2-260-154.2l-34.8-7.6 6.3 3.4"/>
		<path id="SHADOK" class="s1" aria-label="SHADOK"  d="m53.7 305.7q0 1.6-0.7 3-0.6 1.3-1.9 2.3-1.2 0.9-3.1 1.5-1.8 0.5-4.1 0.5-2.6 0-4.8-0.6-2.2-0.6-3.7-1.8-1.6-1.3-2.5-3.2-0.8-2-0.9-4.7h-11.5q0 4.7 1.8 8.2 1.8 3.5 4.9 6.1 3.3 2.6 7.7 4 4.5 1.3 9 1.3 4.6 0 8.5-1.1 4-1.1 6.8-3.3 2.8-2.1 4.4-5.2 1.6-3.1 1.6-7.1 0-4.6-2.1-8.2-2.1-3.5-5.7-6.1-2.4-1.7-5.2-2.9-2.8-1.3-6-2.1-2.9-0.8-5.2-1.7-2.3-1-3.9-2.1-1.6-1.1-2.5-2.4-0.8-1.4-0.8-3.1 0-1.6 0.6-3 0.7-1.4 1.9-2.5 1.3-1 3-1.5 1.9-0.6 4.2-0.6 2.5 0 4.4 0.7 1.9 0.7 3.2 1.9 1.3 1.2 1.9 2.9 0.7 1.8 0.7 3.8h11.4q0-4.1-1.5-7.5-1.6-3.4-4.5-5.9-2.8-2.5-6.7-3.8-3.9-1.4-8.7-1.4-4.6 0-8.5 1.2-3.9 1.2-6.8 3.4-2.8 2.2-4.4 5.3-1.7 3.1-1.7 6.9 0 3.4 1.2 6.2 1.3 2.8 3.7 5.2 2.4 2.3 6.2 4.2 3.8 2 8.9 3.4 3.2 0.8 5.4 1.9 2.2 1 3.5 2.2 1.4 1.2 1.9 2.6 0.6 1.5 0.6 3.1zm48.1 15.8h11.5v-60.6h-11.5v24.9h-17.2v-24.9h-11.6v60.6h11.6v-26.3h17.2zm34.3-12.6h18.2l3.5 12.6h12.3l-19.4-60.5h-10.6l-19.9 60.5h12.3zm15.5-9.9h-12.6l6.4-22.3zm23.8-38v60.6h16.3q4 0 7.5-1 3.6-1 6.6-2.9 2.5-1.6 4.6-3.9 2.1-2.4 3.7-5.1 1.7-3.2 2.6-6.9 0.9-3.8 0.9-8v-4.9q0-4.4-1-8.3-0.9-3.8-2.7-7.1-1.6-2.6-3.6-4.8-2.1-2.2-4.7-3.8-3-1.8-6.7-2.8-3.6-1.1-7.8-1.1zm11.8 51.2v-41.7h3.9q2.1 0 3.9 0.5 1.8 0.5 3.3 1.3 2 1.2 3.4 3 1.5 1.9 2.4 4.2 0.8 2 1.1 4.3 0.5 2.4 0.5 5v5q0 2.8-0.5 5.2-0.3 2.4-1.1 4.4-0.9 2.2-2.2 3.9-1.2 1.7-2.8 2.8-1.6 1-3.4 1.6-1.9 0.5-4.1 0.5zm81.9-16.4v-8.9q0-4.1-0.8-7.7-0.7-3.7-2.2-6.8-1.3-2.7-3.2-4.9-1.8-2.3-4.3-3.9-2.4-1.6-5.5-2.5-3-0.9-6.5-0.9-3.5 0-6.4 0.9-3 0.8-5.4 2.5-2.4 1.6-4.3 4-1.8 2.3-3.1 5.2-1.3 3-2 6.6-0.7 3.5-0.7 7.5v8.9q0 3.7 0.6 7.1 0.6 3.3 1.8 6.2 1.3 3.1 3.2 5.6 1.9 2.5 4.3 4.2 2.5 1.7 5.5 2.6 3 0.9 6.5 0.9 3.3 0 6.2-0.8 2.9-0.8 5.3-2.3 2.7-1.6 4.8-4.1 2-2.5 3.5-5.5 1.3-3 2-6.5 0.7-3.5 0.7-7.4zm-11.8-8.9v8.9q0 2.2-0.3 4.3-0.2 2.1-0.7 3.8-0.5 2.3-1.5 4-1 1.8-2.4 3-1.1 0.9-2.6 1.4-1.4 0.5-3.2 0.5-1.8 0-3.3-0.5-1.4-0.6-2.5-1.6-1.2-1.1-2.1-2.9-0.9-1.8-1.4-4-0.4-1.8-0.6-3.8-0.1-2-0.1-4.2v-8.9q0-2.4 0.1-4.5 0.3-2.1 0.7-3.9 0.5-2.3 1.5-4.1 1-1.7 2.4-2.9 1-0.8 2.3-1.2 1.3-0.4 3-0.4 1.7 0 3 0.4 1.5 0.5 2.6 1.3 1.4 1.2 2.4 2.9 1.1 1.8 1.7 4 0.5 1.8 0.7 3.9 0.3 2.1 0.3 4.5zm32.3 16.8l6.4-7 15 24.9h13.9l-21.1-33.8 20.3-26.8h-14.3l-14.7 20.4-5.5 7.4v-27.8h-11.7v60.6h11.7z"/>
		<path id="      ." class="s1" aria-label="      ."  d="m336.2 316.6q0 3.2 2.2 5.4 2.2 2.1 5.9 2.1 3.6 0 5.8-2.1 2.2-2.2 2.2-5.4 0-3.2-2.2-5.4-2.1-2.3-5.8-2.3-3.8 0-5.9 2.3-2.2 2.2-2.2 5.4z"/>
		<path id="       OS" class="s1" aria-label="       OS"  d="m403.2 295.7v-8.9q0-4.1-0.8-7.7-0.8-3.7-2.2-6.8-1.4-2.7-3.2-4.9-1.9-2.3-4.3-3.9-2.5-1.6-5.6-2.5-3-0.9-6.5-0.9-3.4 0-6.4 0.9-2.9 0.8-5.3 2.5-2.4 1.6-4.3 4-1.8 2.3-3.1 5.2-1.3 3-2.1 6.6-0.6 3.5-0.6 7.5v8.9q0 3.7 0.6 7.1 0.6 3.3 1.7 6.2 1.3 3.1 3.3 5.6 1.9 2.5 4.3 4.2 2.4 1.7 5.4 2.6 3 0.9 6.6 0.9 3.3 0 6.2-0.8 2.9-0.8 5.3-2.3 2.6-1.6 4.7-4.1 2.1-2.5 3.5-5.5 1.3-3 2.1-6.5 0.7-3.5 0.7-7.4zm-11.9-8.9v8.9q0 2.2-0.2 4.3-0.3 2.1-0.7 3.8-0.6 2.3-1.6 4-0.9 1.8-2.4 3-1.1 0.9-2.5 1.4-1.5 0.5-3.2 0.5-1.9 0-3.3-0.5-1.4-0.6-2.6-1.6-1.2-1.1-2.1-2.9-0.9-1.8-1.3-4-0.4-1.8-0.6-3.8-0.2-2-0.2-4.2v-8.9q0-2.4 0.2-4.5 0.2-2.1 0.6-3.9 0.6-2.3 1.5-4.1 1-1.7 2.4-2.9 1.1-0.8 2.4-1.2 1.3-0.4 2.9-0.4 1.7 0 3.1 0.4 1.4 0.5 2.5 1.3 1.4 1.2 2.5 2.9 1 1.8 1.7 4 0.4 1.8 0.7 3.9 0.2 2.1 0.2 4.5zm52.2 18.9q0 1.6-0.7 3-0.7 1.3-1.9 2.3-1.3 0.9-3.1 1.5-1.8 0.5-4.1 0.5-2.6 0-4.8-0.6-2.2-0.6-3.7-1.8-1.6-1.3-2.5-3.2-0.9-2-0.9-4.7h-11.5q0 4.7 1.8 8.2 1.8 3.5 4.9 6.1 3.3 2.6 7.7 4 4.5 1.3 9 1.3 4.6 0 8.5-1.1 3.9-1.1 6.8-3.3 2.8-2.1 4.4-5.2 1.6-3.1 1.6-7.1 0-4.6-2.1-8.2-2.1-3.5-5.7-6.1-2.4-1.7-5.2-2.9-2.9-1.3-6-2.1-2.9-0.8-5.2-1.7-2.3-1-3.9-2.1-1.6-1.1-2.5-2.4-0.9-1.4-0.9-3.1 0-1.6 0.7-3 0.6-1.4 1.9-2.5 1.2-1 3-1.5 1.9-0.6 4.2-0.6 2.5 0 4.4 0.7 1.9 0.7 3.2 1.9 1.2 1.2 1.9 2.9 0.6 1.8 0.7 3.8h11.4q0-4.1-1.6-7.5-1.6-3.4-4.4-5.9-2.8-2.5-6.8-3.8-3.9-1.4-8.6-1.4-4.6 0-8.5 1.2-3.9 1.2-6.8 3.4-2.8 2.2-4.5 5.3-1.6 3.1-1.6 6.9 0 3.4 1.2 6.2 1.3 2.8 3.7 5.2 2.4 2.3 6.2 4.2 3.8 2 8.8 3.4 3.3 0.8 5.4 1.9 2.2 1 3.6 2.2 1.3 1.2 1.9 2.6 0.6 1.5 0.6 3.1z"/>
		<path id="       WIKI" class="s1" aria-label="       WIKI"  d=""/>
		<path id="       WIKI" class="s2" aria-label="       WIKI"  d="m496.5 260.9l-1.4 60.6h10.4l9.5-31.3 1.4-4.3v4.7l-0.1 30.9h10.3l17.6-60.6h-10.6l-8.8 32.1-1.1 4.2v-4.3l0.4-32h-8.2l-9.3 31.8-1.3 4.1 0.2-4.3 1.3-31.6zm91.4 0h-34.1l-1.6 9.5h11.1l-7.2 41.7h-11.1l-1.7 9.4h34.1l1.6-9.4h-11.5l7.3-41.7h11.4zm17.3 43.1l7.8-7.3 10.2 24.7h12.9l-14.4-33.2 24.9-27.3h-14.7l-17.4 19.9-6.5 7.2 4.7-27.1h-11.4l-10.6 60.5h11.5zm82.7-43.1h-34l-1.7 9.4h11.2l-7.3 41.7h-11.1l-1.7 9.4h34.1l1.7-9.4h-11.5l7.2-41.7h11.5z"/>
	</g>
</svg>
